<?xml version="1.0" standalone="no"?>
<!DOCTYPE svg PUBLIC "-//W3C//DTD SVG 20010904//EN"
 "http://www.w3.org/TR/2001/REC-SVG-20010904/DTD/svg10.dtd">
<svg version="1.0" xmlns="http://www.w3.org/2000/svg"
 width="504.000000pt" height="495.000000pt" viewBox="0 0 504.000000 495.000000"
 preserveAspectRatio="xMidYMid meet">

<g transform="translate(0.000000,495.000000) scale(0.100000,-0.100000)"
fill="#000000" stroke="none">
<path d="M2110 4883 c1 -15 50 -44 63 -37 6 4 9 4 5 0 -12 -14 113 -121 127
-108 5 4 5 2 2 -4 -8 -14 57 -66 68 -56 5 4 5 2 2 -4 -4 -7 9 -24 30 -40 l37
-28 -20 34 c-57 96 -94 170 -84 170 22 0 151 -71 256 -141 137 -92 282 -234
358 -350 61 -95 80 -135 66 -144 -4 -3 -17 5 -27 18 -26 33 -110 99 -172 136
-110 66 -319 133 -486 155 -216 29 -240 30 -229 13 5 -7 2 -5 -7 4 -17 18 -85
24 -95 7 -3 -5 -20 -7 -37 -4 l-32 6 35 -14 c19 -8 30 -15 24 -15 -6 -1 -14
-32 -18 -73 -11 -122 -17 -147 -32 -141 -9 3 -14 -2 -14 -16 0 -12 6 -21 16
-21 8 0 12 -4 9 -10 -4 -6 6 -11 22 -11 18 -1 21 -3 10 -6 -15 -4 -16 -7 -5
-20 11 -14 10 -16 -14 -11 -15 3 -25 1 -22 -3 3 -5 14 -9 25 -9 34 0 272 -57
346 -83 93 -33 186 -79 191 -96 4 -11 -3 -12 -29 -8 -90 16 -274 19 -409 6
-99 -9 -136 -15 -115 -20 l30 -7 -32 -2 c-18 -1 -37 -4 -43 -5 -5 -1 -13 -3
-16 -4 -4 0 -1 -8 6 -16 10 -13 9 -15 -9 -15 -13 0 -19 -4 -16 -10 4 -6 10 -8
15 -5 4 3 10 -4 13 -15 3 -12 -1 -24 -11 -29 -12 -7 -16 -29 -19 -92 -3 -46
-8 -86 -13 -89 -4 -3 -11 -40 -15 -82 -4 -43 -11 -78 -16 -78 -5 0 -9 -34 -9
-76 0 -67 -3 -79 -22 -96 -13 -11 -18 -22 -13 -26 13 -9 13 -45 0 -54 -5 -4
-6 -10 -2 -14 3 -4 15 -1 24 7 16 13 17 12 4 -4 -9 -11 -21 -15 -34 -11 -12 4
-17 2 -13 -4 5 -8 -53 -62 -68 -62 -9 0 -63 -48 -171 -155 -121 -118 -202
-225 -292 -385 -50 -89 -52 -79 -18 92 58 290 147 499 291 685 35 45 64 85 64
88 0 21 -324 -57 -535 -127 -221 -74 -460 -201 -621 -330 -144 -115 -319 -326
-368 -443 -15 -36 -14 -42 15 -144 203 -699 594 -1272 1194 -1750 260 -208
654 -455 1013 -635 96 -48 104 -49 183 -13 19 9 62 25 95 36 111 37 392 167
552 256 180 100 375 231 530 354 135 108 424 395 528 525 378 475 624 984 787
1636 45 180 60 247 53 239 -2 -2 -23 -49 -46 -104 -189 -447 -454 -850 -747
-1136 -323 -316 -618 -480 -1023 -566 -129 -27 -476 -25 -618 5 -237 49 -307
82 -479 225 -203 169 -346 385 -389 586 -30 143 -9 328 51 445 21 40 23 51 13
65 -12 14 -11 14 5 2 15 -12 21 -9 18 11 0 4 9 12 20 18 20 11 20 12 2 33 -14
17 -15 19 -1 9 14 -11 20 -10 38 8 12 12 19 28 16 36 -3 7 -2 13 2 12 16 -4
72 33 66 44 -4 6 -3 8 4 4 6 -3 17 0 25 8 56 56 307 164 442 190 131 26 368
23 515 -5 182 -35 401 -126 539 -222 137 -96 274 -259 331 -394 l27 -64 62 42
c90 60 172 147 214 226 37 71 67 166 67 213 0 24 -2 25 -55 22 -101 -7 -222
64 -557 325 -108 84 -200 158 -203 163 -9 14 96 12 245 -4 481 -54 834 -185
904 -336 26 -55 24 -55 114 13 113 86 190 233 216 415 l6 43 -29 -16 c-17 -8
-56 -15 -88 -15 -79 0 -369 101 -557 195 -122 60 -146 76 -176 117 -44 59 -74
136 -100 257 -12 52 -25 101 -30 111 -13 24 -166 154 -262 223 -280 200 -673
387 -1043 496 -75 22 -150 39 -308 71 -109 22 -117 23 -117 13z m-74 -388 c-3
-8 0 -15 6 -15 6 0 9 -3 5 -6 -3 -3 -14 -1 -24 5 -14 8 -14 10 -3 11 13 0 13
1 0 10 -13 8 -12 10 4 10 12 0 16 -5 12 -15z m28 -1 c3 -8 2 -12 -4 -9 -6 3
-10 10 -10 16 0 14 7 11 14 -7z m1406 -537 c132 -73 159 -91 180 -126 14 -23
53 -61 87 -86 67 -48 82 -65 59 -65 -27 0 -337 109 -387 137 -71 38 -153 129
-178 198 -35 94 -44 97 239 -58z m-1623 -679 c-3 -7 -5 -2 -5 12 0 14 2 19 5
13 2 -7 2 -19 0 -25z m-51 -616 c-10 -2 -22 0 -28 6 -6 6 0 7 19 4 21 -5 23
-7 9 -10z"/>
<path d="M1940 4486 c0 -2 7 -7 16 -10 8 -3 12 -2 9 4 -6 10 -25 14 -25 6z"/>
<path d="M1928 4193 c6 -2 18 -2 25 0 6 3 1 5 -13 5 -14 0 -19 -2 -12 -5z"/>
<path d="M689 3691 c11 -7 11 -9 0 -13 -8 -3 -11 -8 -8 -12 3 -3 13 2 22 12
15 17 15 18 -6 19 -15 2 -18 0 -8 -6z"/>
<path d="M646 3662 c-10 -12 -16 -28 -13 -36 4 -9 1 -18 -5 -22 -6 -4 -8 -3
-4 4 3 6 2 13 -3 16 -9 6 -46 -32 -86 -88 -11 -15 -33 -42 -48 -59 -63 -71
-193 -280 -263 -422 -62 -128 -144 -322 -144 -343 0 -3 27 47 61 112 124 242
233 389 444 599 68 68 104 134 88 161 -4 5 1 7 12 3 16 -7 16 -6 2 16 -8 13
-17 36 -19 52 l-3 27 -19 -20z"/>
</g>
</svg>
